HIERARCHY
ROOT Hips
{
  OFFSET 0.000 77.780 0.000
  CHANNELS 6 Xposition Yposition Zposition Zrotation Xrotation Yrotation
  JOINT LeftUpLeg
  {
    OFFSET 6.388 -0.002 2.902
    CHANNELS 6 Xposition Yposition Zposition Zrotation Xrotation Yrotation
    JOINT LeftLeg
    {
      OFFSET 0.000 -37.999 0.000
      CHANNELS 6 Xposition Yposition Zposition Zrotation Xrotation Yrotation
      JOINT LeftFoot
      {
        OFFSET 0.000 -39.779 0.000
        CHANNELS 6 Xposition Yposition Zposition Zrotation Xrotation Yrotation
        End Site
        {
          OFFSET 0.000 0.000 11.391
        }
      }
    }
  }
  JOINT RightUpLeg
  {
    OFFSET -6.388 -0.002 2.902
    CHANNELS 6 Xposition Yposition Zposition Zrotation Xrotation Yrotation
    JOINT RightLeg
    {
      OFFSET 0.000 -37.999 0.000
      CHANNELS 6 Xposition Yposition Zposition Zrotation Xrotation Yrotation
      JOINT RightFoot
      {
        OFFSET 0.000 -39.779 0.000
        CHANNELS 6 Xposition Yposition Zposition Zrotation Xrotation Yrotation
        End Site
        {
          OFFSET 0.000 0.000 11.391
        }
      }
    }
  }
  JOINT Spine
  {
    OFFSET 0.000 34.300 0.000
    CHANNELS 6 Xposition Yposition Zposition Zrotation Xrotation Yrotation
    JOINT Spine1
    {
      OFFSET 0.000 25.000 0.000
      CHANNELS 6 Xposition Yposition Zposition Zrotation Xrotation Yrotation
      JOINT LeftShoulder
      {
        OFFSET 1.800 -0.600 0.200
        CHANNELS 6 Xposition Yposition Zposition Zrotation Xrotation Yrotation
        JOINT LeftArm
        {
          OFFSET 15.300 0.000 0.000
          CHANNELS 6 Xposition Yposition Zposition Zrotation Xrotation Yrotation
          JOINT LeftForeArm
          {
            OFFSET 22.206 0.000 0.000
            CHANNELS 6 Xposition Yposition Zposition Zrotation Xrotation Yrotation
            JOINT LeftHand
            {
              OFFSET 24.530 0.000 0.000
              CHANNELS 6 Xposition Yposition Zposition Zrotation Xrotation Yrotation
              JOINT LeftHandThumb1
              {
                OFFSET 0.000 -0.000 0.000
                CHANNELS 6 Xposition Yposition Zposition Zrotation Xrotation Yrotation
                JOINT LeftHandThumb2
                {
                  OFFSET 0.000 -0.000 0.000
                  CHANNELS 6 Xposition Yposition Zposition Zrotation Xrotation Yrotation
                  JOINT LeftHandThumb3
                  {
                    OFFSET 0.000 -0.000 0.000
                    CHANNELS 6 Xposition Yposition Zposition Zrotation Xrotation Yrotation
                    End Site
                    {
                      OFFSET 0.000 -0.000 0.000
                    }
                  }
                }
              }
              JOINT LeftHandIndex1
              {
                OFFSET 0.000 -0.000 0.000
                CHANNELS 6 Xposition Yposition Zposition Zrotation Xrotation Yrotation
                JOINT LeftHandIndex2
                {
                  OFFSET 0.000 -0.000 0.000
                  CHANNELS 6 Xposition Yposition Zposition Zrotation Xrotation Yrotation
                  JOINT LeftHandIndex3
                  {
                    OFFSET 0.000 -0.000 0.000
                    CHANNELS 6 Xposition Yposition Zposition Zrotation Xrotation Yrotation
                    End Site
                    {
                      OFFSET 0.000 -0.000 0.000
                    }
                  }
                }
              }
              JOINT LeftHandMiddle1
              {
                OFFSET 0.000 -0.000 0.000
                CHANNELS 6 Xposition Yposition Zposition Zrotation Xrotation Yrotation
                JOINT LeftHandMiddle2
                {
                  OFFSET 0.000 -0.000 0.000
                  CHANNELS 6 Xposition Yposition Zposition Zrotation Xrotation Yrotation
                  JOINT LeftHandMiddle3
                  {
                    OFFSET 0.000 -0.000 0.000
                    CHANNELS 6 Xposition Yposition Zposition Zrotation Xrotation Yrotation
                    End Site
                    {
                      OFFSET 0.000 -0.000 0.000
                    }
                  }
                }
              }
              JOINT LeftHandRing1
              {
                OFFSET 0.000 -0.000 0.000
                CHANNELS 6 Xposition Yposition Zposition Zrotation Xrotation Yrotation
                JOINT LeftHandRing2
                {
                  OFFSET 0.000 -0.000 0.000
                  CHANNELS 6 Xposition Yposition Zposition Zrotation Xrotation Yrotation
                  JOINT LeftHandRing3
                  {
                    OFFSET 0.000 -0.000 0.000
                    CHANNELS 6 Xposition Yposition Zposition Zrotation Xrotation Yrotation
                    End Site
                    {
                      OFFSET 0.000 -0.000 0.000
                    }
                  }
                }
              }
              JOINT LeftHandPinky1
              {
                OFFSET 0.000 -0.000 0.000
                CHANNELS 6 Xposition Yposition Zposition Zrotation Xrotation Yrotation
                JOINT LeftHandPinky2
                {
                  OFFSET 0.000 -0.000 0.000
                  CHANNELS 6 Xposition Yposition Zposition Zrotation Xrotation Yrotation
                  JOINT LeftHandPinky3
                  {
                    OFFSET 0.000 -0.000 0.000
                    CHANNELS 6 Xposition Yposition Zposition Zrotation Xrotation Yrotation
                    End Site
                    {
                      OFFSET 0.000 -0.000 0.000
                    }
                  }
                }
              }
            }
          }
        }
      }
      JOINT RightShoulder
      {
        OFFSET -1.800 -0.600 0.200
        CHANNELS 6 Xposition Yposition Zposition Zrotation Xrotation Yrotation
        JOINT RightArm
        {
          OFFSET -15.300 0.000 0.000
          CHANNELS 6 Xposition Yposition Zposition Zrotation Xrotation Yrotation
          JOINT RightForeArm
          {
            OFFSET -22.206 0.000 0.000
            CHANNELS 6 Xposition Yposition Zposition Zrotation Xrotation Yrotation
            JOINT RightHand
            {
              OFFSET -24.530 0.000 0.000
              CHANNELS 6 Xposition Yposition Zposition Zrotation Xrotation Yrotation
              JOINT RightHandThumb1
              {
                OFFSET -0.000 0.000 0.000
                CHANNELS 6 Xposition Yposition Zposition Zrotation Xrotation Yrotation
                JOINT RightHandThumb2
                {
                  OFFSET -0.000 0.000 0.000
                  CHANNELS 6 Xposition Yposition Zposition Zrotation Xrotation Yrotation
                  JOINT RightHandThumb3
                  {
                    OFFSET -0.000 0.000 0.000
                    CHANNELS 6 Xposition Yposition Zposition Zrotation Xrotation Yrotation
                    End Site
                    {
                      OFFSET -0.000 0.000 0.000
                    }
                  }
                }
              }
              JOINT RightHandIndex1
              {
                OFFSET -0.000 0.000 0.000
                CHANNELS 6 Xposition Yposition Zposition Zrotation Xrotation Yrotation
                JOINT RightHandIndex2
                {
                  OFFSET -0.000 0.000 0.000
                  CHANNELS 6 Xposition Yposition Zposition Zrotation Xrotation Yrotation
                  JOINT RightHandIndex3
                  {
                    OFFSET -0.000 0.000 0.000
                    CHANNELS 6 Xposition Yposition Zposition Zrotation Xrotation Yrotation
                    End Site
                    {
                      OFFSET -0.000 0.000 0.000
                    }
                  }
                }
              }
              JOINT RightHandMiddle1
              {
                OFFSET -0.000 0.000 0.000
                CHANNELS 6 Xposition Yposition Zposition Zrotation Xrotation Yrotation
                JOINT RightHandMiddle2
                {
                  OFFSET -0.000 0.000 0.000
                  CHANNELS 6 Xposition Yposition Zposition Zrotation Xrotation Yrotation
                  JOINT RightHandMiddle3
                  {
                    OFFSET -0.000 0.000 0.000
                    CHANNELS 6 Xposition Yposition Zposition Zrotation Xrotation Yrotation
                    End Site
                    {
                      OFFSET -0.000 0.000 0.000
                    }
                  }
                }
              }
              JOINT RightHandRing1
              {
                OFFSET -0.000 0.000 0.000
                CHANNELS 6 Xposition Yposition Zposition Zrotation Xrotation Yrotation
                JOINT RightHandRing2
                {
                  OFFSET -0.000 0.000 0.000
                  CHANNELS 6 Xposition Yposition Zposition Zrotation Xrotation Yrotation
                  JOINT RightHandRing3
                  {
                    OFFSET -0.000 0.000 0.000
                    CHANNELS 6 Xposition Yposition Zposition Zrotation Xrotation Yrotation
                    End Site
                    {
                      OFFSET -0.000 0.000 0.000
                    }
                  }
                }
              }
              JOINT RightHandPinky1
              {
                OFFSET -0.000 0.000 0.000
                CHANNELS 6 Xposition Yposition Zposition Zrotation Xrotation Yrotation
                JOINT RightHandPinky2
                {
                  OFFSET -0.000 0.000 0.000
                  CHANNELS 6 Xposition Yposition Zposition Zrotation Xrotation Yrotation
                  JOINT RightHandPinky3
                  {
                    OFFSET -0.000 0.000 0.000
                    CHANNELS 6 Xposition Yposition Zposition Zrotation Xrotation Yrotation
                    End Site
                    {
                      OFFSET -0.000 0.000 0.000
                    }
                  }
                }
              }
            }
          }
        }
      }
      JOINT Neck
      {
        OFFSET 0.000 0.800 0.000
        CHANNELS 6 Xposition Yposition Zposition Zrotation Xrotation Yrotation
        JOINT Head
        {
          OFFSET 0.000 7.300 0.000
          CHANNELS 6 Xposition Yposition Zposition Zrotation Xrotation Yrotation
          End Site
          {
            OFFSET 0.000 15.100 0.000
          }
        }
      }
    }
  }
}
MOTION
Frames:	4
Frame Time:	0.033333
38.69810 12.28972 -244.35631 -74.57596 -20.76536 -31.53544 7.41147 -2.00414 3.59817 -8.11759 -25.28804 -52.03265 -0.72880 -41.34629 -0.39195 -23.42225 17.10666 53.10553 -0.01612 -41.31641 0.14018 69.88525 -7.77662 90.83287 -6.73577 0.09767 2.31073 -6.99180 -20.88796 -52.09371 -1.10004 -43.08577 -0.48452 -32.16830 -14.15414 84.41328 -4.61737 -40.76473 0.31573 -19.86075 25.84064 37.85522 0.45443 30.27483 -0.82337 -1.24407 1.17750 8.24116 0.57533 22.37457 -0.64702 -0.51967 0.69027 8.33626 1.57314 0.75845 0.38923 26.09781 -6.29202 -10.95654 17.03471 0.13965 -0.14730 -16.26877 26.75883 -52.36464 17.78657 -2.18989 6.55290 -63.32521 -15.38021 -31.89014 12.50717 -2.36581 4.57167 112.54592 67.81300 172.25084 4.87701 -1.04401 3.60801 -0.31295 -0.11687 -0.07820 2.66500 -0.00001 -0.00001 0.00000 -0.00000 0.03910 2.54301 0.00000 -0.00001 -0.00000 -0.00000 0.46920 9.23201 -0.30102 2.14401 -0.62559 -0.00000 0.00000 4.22498 -0.00001 -0.00002 -0.70379 -0.00000 -0.00000 2.65399 0.00000 0.00001 -0.54739 -0.00000 0.00000 8.91999 -0.00001 0.00000 -0.62559 -0.00000 0.00000 4.86300 0.00000 0.00000 -0.70379 -0.00000 -0.00000 2.76498 -0.00001 -0.00001 -0.54739 -0.00000 0.00000 8.68900 -0.12600 -2.08700 -0.62559 -0.00000 0.00000 4.53800 0.00001 0.00001 -0.70379 -0.00000 -0.00000 2.30500 0.00000 0.00000 -0.54739 -0.00000 0.00000 8.39100 -0.81701 -3.75800 -0.62559 -0.00000 0.00000 3.04397 -0.00002 -0.00002 -0.70379 -0.00000 -0.00000 1.97498 0.00001 0.00004 -0.54739 -0.00000 0.00000 -1.66667 0.47550 0.35755 -17.21947 -3.72275 11.47256 -15.58374 1.10273 -0.39599 119.89821 -14.71017 12.15254 -17.63116 -0.85119 4.09209 73.54975 -49.38660 -4.55961 -18.22046 0.68639 1.21526 2.64683 -19.42223 -3.64882 -4.87701 -1.04400 3.60801 0.31288 0.11708 -0.03910 -2.66500 -0.00002 -0.00002 -0.00000 -0.00000 -0.03910 -2.54300 0.00001 0.00002 0.00000 -0.00001 -0.46919 -9.23202 -0.30099 2.14400 -0.01564 0.00000 0.00000 -4.22498 -0.00001 -0.00001 -0.01564 -0.00000 -0.00001 -2.65399 0.00000 0.00000 -0.01564 0.00000 0.00000 -8.92003 0.00001 0.00000 0.62559 -0.00000 0.00001 -4.86301 -0.00001 -0.00001 0.70379 -0.00000 0.00000 -2.76499 -0.00001 0.00002 0.54739 -0.00001 0.00001 -8.68900 -0.12600 -2.08701 0.62559 -0.00000 0.00001 -4.53799 0.00000 0.00001 0.70379 -0.00000 0.00000 -2.30500 0.00000 0.00000 0.54739 -0.00001 0.00001 -8.39100 -0.81700 -3.75799 -0.01564 0.00000 0.00000 -3.04401 0.00001 -0.00001 -0.01564 -0.00000 -0.00001 -1.97500 0.00000 0.00000 -0.01564 0.00000 0.00000 0.02248 0.74014 -0.01981 -0.00867 -0.01481 -0.00556 0.23830 6.68495 -0.19150 -33.89822 55.78994 117.74097 
39.18005 11.18546 -242.80196 -76.86319 -18.02524 -23.48716 6.47578 -1.63356 3.75347 -9.94069 -29.05401 -61.58395 -0.48468 -41.33972 -0.30240 -29.63055 18.56059 35.24113 0.53878 -42.04092 -0.82516 70.12691 30.63675 105.46062 -6.72292 -0.60084 2.56194 -4.89654 -16.56330 -61.31785 -0.90240 -43.67452 -0.49310 -37.14932 -33.00910 86.73075 -3.55826 -37.24025 1.83177 -20.60631 24.74141 43.46004 0.68183 30.24285 -0.81099 -0.83328 0.98538 5.41421 0.62509 22.51090 -0.49437 -0.38266 0.83344 5.23349 1.38640 0.91491 0.33367 32.73126 -6.89524 -10.44515 16.23536 0.00425 0.00764 -32.74178 26.30664 -54.15219 19.95072 -2.56609 5.39282 -62.51516 -3.96760 -41.90405 12.45545 -2.36831 3.65406 -106.29824 79.97408 45.27173 4.87701 -1.04401 3.60801 -0.19222 -0.07190 -0.04804 2.66500 -0.00001 -0.00001 0.00000 -0.00000 0.02402 2.54301 0.00000 -0.00001 -0.00000 -0.00000 0.28824 9.23201 -0.30102 2.14401 -0.38432 -0.00000 0.00000 4.22498 -0.00001 -0.00002 -0.43236 -0.00000 -0.00000 2.65399 0.00000 0.00001 -0.33628 -0.00000 0.00000 8.91999 -0.00001 0.00000 -0.38432 -0.00000 0.00000 4.86300 0.00000 0.00000 -0.43236 -0.00000 -0.00000 2.76498 -0.00001 -0.00001 -0.33628 -0.00000 0.00000 8.68900 -0.12600 -2.08700 -0.38432 -0.00000 0.00000 4.53800 0.00001 0.00001 -0.43236 -0.00000 -0.00000 2.30500 0.00000 0.00000 -0.33628 -0.00000 0.00000 8.39100 -0.81701 -3.75800 -0.38432 -0.00000 0.00000 3.04397 -0.00002 -0.00002 -0.43236 -0.00000 -0.00000 1.97498 0.00001 0.00004 -0.33628 -0.00000 0.00000 -1.71572 0.50837 0.31675 -17.31685 -3.27674 9.88313 -16.11044 0.79970 -0.25461 134.10547 -14.70924 21.56563 -19.84571 -2.30102 3.77811 66.45507 -25.50879 -0.42737 -18.24275 0.13850 -0.14872 25.22222 2.05801 15.16568 -4.87701 -1.04400 3.60801 0.19219 0.07198 -0.02402 -2.66500 -0.00002 -0.00002 -0.00000 -0.00000 -0.02402 -2.54300 0.00001 0.00002 0.00000 -0.00001 -0.28824 -9.23202 -0.30099 2.14400 -0.00961 0.00000 0.00000 -4.22498 -0.00001 -0.00001 -0.00961 -0.00000 -0.00001 -2.65399 0.00000 0.00000 -0.00961 0.00000 0.00000 -8.92003 0.00001 0.00000 0.38432 -0.00000 0.00001 -4.86301 -0.00001 -0.00001 0.43236 -0.00000 0.00000 -2.76499 -0.00001 0.00002 0.33628 -0.00001 0.00001 -8.68900 -0.12600 -2.08701 0.38432 -0.00000 0.00001 -4.53799 0.00000 0.00001 0.43236 -0.00000 0.00000 -2.30500 0.00000 0.00000 0.33628 -0.00001 0.00001 -8.39100 -0.81700 -3.75799 -0.00961 0.00000 0.00000 -3.04401 0.00001 -0.00001 -0.00961 -0.00000 -0.00001 -1.97500 0.00000 0.00000 -0.00961 0.00000 0.00000 0.02199 0.74046 -0.01277 -0.00867 -0.00894 -0.00556 0.11269 6.68279 -0.20737 -51.25685 32.90287 172.79906 
39.20972 10.06919 -239.70410 -78.99663 -18.20118 -20.08601 6.07588 -1.55937 3.55388 -13.98143 -28.07299 -65.06823 -0.21776 -40.86599 -0.26420 -32.86455 23.21190 7.25568 1.19432 -42.52348 -2.12418 29.55007 61.30774 151.92648 -6.84253 -0.76470 2.69153 -2.79774 -10.48687 -63.30881 -0.88191 -44.09351 -0.25676 -44.93994 -48.24825 84.43314 -2.68443 -33.82761 2.81562 -17.78664 21.36545 44.53690 0.60686 30.95865 -0.62021 -0.46933 1.54666 4.25316 0.50392 22.82310 -0.34952 -0.38035 1.67611 4.29340 1.26012 1.00902 0.28679 37.27900 -7.40729 -9.86520 15.67342 -0.04693 0.06159 -46.14307 26.59848 -54.98640 21.60143 -2.45529 4.21407 -63.72349 4.82588 -45.82175 13.52763 -2.40858 3.32574 -80.41556 61.57328 30.36304 4.87701 -1.04401 3.60801 -0.11800 -0.04418 -0.02950 2.66500 -0.00001 -0.00001 0.00000 -0.00000 0.01475 2.54301 0.00000 -0.00001 -0.00000 -0.00000 0.17696 9.23201 -0.30102 2.14401 -0.23595 -0.00000 0.00000 4.22498 -0.00001 -0.00002 -0.26544 -0.00000 -0.00000 2.65399 0.00000 0.00001 -0.20646 -0.00000 0.00000 8.91999 -0.00001 0.00000 -0.23595 -0.00000 0.00000 4.86300 0.00000 0.00000 -0.26544 -0.00000 -0.00000 2.76498 -0.00001 -0.00001 -0.20646 -0.00000 0.00000 8.68900 -0.12600 -2.08700 -0.23595 -0.00000 0.00000 4.53800 0.00001 0.00001 -0.26544 -0.00000 -0.00000 2.30500 0.00000 0.00000 -0.20646 -0.00000 0.00000 8.39100 -0.81701 -3.75800 -0.23595 -0.00000 0.00000 3.04397 -0.00002 -0.00002 -0.26544 -0.00000 -0.00000 1.97498 0.00001 0.00004 -0.20646 -0.00000 0.00000 -1.75353 0.53493 0.28519 -17.45324 -2.95129 8.82804 -16.48553 0.59238 -0.13193 147.95949 -13.04092 27.62649 -21.45882 -3.07291 3.17864 53.10612 -25.19815 0.22687 -18.45005 0.10517 -0.07152 21.86976 -17.21842 13.48837 -4.87701 -1.04400 3.60801 0.11799 0.04421 -0.01475 -2.66500 -0.00002 -0.00002 -0.00000 -0.00000 -0.01475 -2.54300 0.00001 0.00002 0.00000 -0.00001 -0.17697 -9.23202 -0.30099 2.14400 -0.00590 0.00000 0.00000 -4.22498 -0.00001 -0.00001 -0.00590 -0.00000 -0.00001 -2.65399 0.00000 0.00000 -0.00590 0.00000 0.00000 -8.92003 0.00001 0.00000 0.23595 -0.00000 0.00001 -4.86301 -0.00001 -0.00001 0.26544 -0.00000 0.00000 -2.76499 -0.00001 0.00002 0.20646 -0.00001 0.00001 -8.68900 -0.12600 -2.08701 0.23595 -0.00000 0.00001 -4.53799 0.00000 0.00001 0.26544 -0.00000 0.00000 -2.30500 0.00000 0.00000 0.20646 -0.00001 0.00001 -8.39100 -0.81700 -3.75799 -0.00590 0.00000 0.00000 -3.04401 0.00001 -0.00001 -0.00590 -0.00000 -0.00001 -1.97500 0.00000 0.00000 -0.00590 0.00000 0.00000 0.01796 0.74404 -0.00794 -0.00867 -0.00557 -0.00556 0.01817 6.70566 -0.20923 -43.78621 4.73421 -158.23717 
39.27421 10.36505 -239.50900 -82.31950 -15.39900 -19.38428 6.28098 -1.03769 3.47458 -9.65391 -33.40379 -63.99638 0.00790 -40.55563 -0.36842 -39.74821 24.39786 -14.62053 0.05482 -43.05385 -2.77740 -30.14621 55.00075 -136.72273 -7.08926 -1.18053 2.83576 3.84107 -10.46095 -61.72950 -0.80277 -44.76041 -0.33912 -58.98984 -56.57583 77.57095 -2.34077 -32.30572 2.67253 -18.28563 20.09239 47.90331 0.54016 30.88576 -0.47219 1.34606 0.25096 4.05109 0.40607 22.95692 -0.24675 -1.64171 2.54920 4.64019 1.15454 1.11962 0.24675 42.07322 -8.02822 -9.23457 15.54446 -0.04424 0.07283 -56.06152 26.47230 -56.31756 22.69007 -2.07029 3.22881 -65.55196 10.26354 -46.02744 14.94909 -2.24360 2.92645 -73.18250 49.20668 32.11610 4.87701 -1.04401 3.60801 -0.07239 -0.02712 -0.01810 2.66500 -0.00001 -0.00001 0.00000 -0.00000 0.00904 2.54301 0.00000 -0.00001 -0.00000 -0.00000 0.10858 9.23201 -0.30102 2.14401 -0.14477 -0.00000 0.00000 4.22498 -0.00001 -0.00002 -0.16286 -0.00000 -0.00000 2.65399 0.00000 0.00001 -0.12667 -0.00000 0.00000 8.91999 -0.00001 0.00000 -0.14477 -0.00000 0.00000 4.86300 0.00000 0.00000 -0.16286 -0.00000 -0.00000 2.76498 -0.00001 -0.00001 -0.12667 -0.00000 0.00000 8.68900 -0.12600 -2.08700 -0.14477 -0.00000 0.00000 4.53800 0.00001 0.00001 -0.16286 -0.00000 -0.00000 2.30500 0.00000 0.00000 -0.12667 -0.00000 0.00000 8.39100 -0.81701 -3.75800 -0.14477 -0.00000 0.00000 3.04397 -0.00002 -0.00002 -0.16286 -0.00000 -0.00000 1.97498 0.00001 0.00004 -0.12667 -0.00000 0.00000 -1.77842 0.48853 0.25101 -15.86160 -2.43378 7.97770 -16.50930 0.42312 -0.04978 157.12328 -9.38103 32.57145 -23.20559 -3.01232 2.46652 45.00079 -22.09477 1.37225 -18.82577 -0.02403 0.02872 17.87699 -29.63861 11.41823 -4.87701 -1.04400 3.60801 0.07239 0.02713 -0.00904 -2.66500 -0.00002 -0.00002 -0.00000 -0.00000 -0.00905 -2.54300 0.00001 0.00002 0.00000 -0.00001 -0.10857 -9.23202 -0.30099 2.14400 -0.00363 0.00000 0.00000 -4.22498 -0.00001 -0.00001 -0.00363 -0.00000 -0.00001 -2.65399 0.00000 0.00000 -0.00363 0.00000 0.00000 -8.92003 0.00001 0.00000 0.14477 -0.00000 0.00001 -4.86301 -0.00001 -0.00001 0.16286 -0.00000 0.00000 -2.76499 -0.00001 0.00002 0.12667 -0.00001 0.00001 -8.68900 -0.12600 -2.08701 0.14477 -0.00000 0.00001 -4.53799 0.00000 0.00001 0.16286 -0.00000 0.00000 -2.30500 0.00000 0.00000 0.12667 -0.00001 0.00001 -8.39100 -0.81700 -3.75799 -0.00363 0.00000 0.00000 -3.04401 0.00001 -0.00001 -0.00363 -0.00000 -0.00001 -1.97500 0.00000 0.00000 -0.00363 0.00000 0.00000 0.01546 0.74830 -0.00508 -0.00867 -0.00274 -0.00556 -0.00356 6.72657 -0.18485 -30.35523 -9.31705 -135.92368 
